<?xml version="1.0" encoding="utf-8"?>
<!-- Generator: Adobe Illustrator 24.0.0, SVG Export Plug-In . SVG Version: 6.00 Build 0)  -->
<svg version="1.1" id="Layer_1" xmlns="http://www.w3.org/2000/svg" xmlns:xlink="http://www.w3.org/1999/xlink" x="0px" y="0px"
	 viewBox="0 0 250 142" style="enable-background:new 0 0 250 142;" xml:space="preserve">
<style type="text/css">
	.st0{fill:#FFFFFF;}
</style>
<path class="st0" d="M24.7,102.7c-1.8-6-7.4-9.2-7.4-9.2c-3.4-2.1-13.6-4.1-15.6,1C1,96.1,1,105.4,0.6,117.3
	c-0.2,5-0.4,9.8-0.5,14.8c0,2.6-0.2,4.9,0,6.5c0,0.4,0.1,0.8,0.3,1.2c0,0.1,0.1,0.2,0.2,0.3c0,0,0,0,0,0c0,0,0,0,0,0
	c0.6,1.1,1.8,1.9,3.2,1.9c2,0,3.7-1.6,3.7-3.7c0,0,0,0,0,0c0.1-1.2-0.1-3.2-0.1-6.6c0-0.6,0-7.4,0-7.4
	C17.6,124.5,28.4,115,24.7,102.7z M7.3,95.8c4.8,0.1,11.7,3.1,13.3,9.4c2.2,8.5-5.6,15.8-13.3,15.8C7.4,120.9,7.3,95.8,7.3,95.8z
	 M86.7,138.8C86.7,138.8,86.7,138.9,86.7,138.8c-0.2,1.3-1.3,2.3-2.6,2.3c-1,0-1.9-0.6-2.4-1.5c0,0,0,0,0,0c0,0,0,0,0-0.1
	c0,0,0,0,0,0c-1.1-2.7-12.4-30.6-12.2-32.1c-0.4,5.7-1.4,26-1.5,31.3c0,0.3,0,0.5,0,0.8c0,0,0,0.1,0,0.1c0,0.4-0.1,0.7-0.2,1
	c-0.1,0.3-0.2,0.5-0.4,0.6c-0.4,0.5-1,0.8-1.7,0.8c-1.3,0-2.3-1-2.3-2.3c0-0.1,0-0.1,0-0.2c0-0.1,0-0.3,0-0.5
	c0.2-10,1.1-34.7,1.3-40c0,0,0-0.5,0.2-1.2c0.3-1.6,1.7-2.8,3.3-2.8c1,0,1.9,0.5,2.6,1.2c0.1,0.1,0.1,0.1,0.2,0.2c0,0,0,0,0,0
	c0,0,0,0,0,0.1c0.4,0.7,0.2,0.3,0.6,1c0.9,1.2,11.5,22.9,11.3,24.5c1.1-8.5,2.8-27.2,3.2-28.9c0,0,0-0.1,0-0.1
	c0.2-0.9,1-1.6,1.9-1.6c1.1,0,2,0.9,2,2C90,94.2,87.2,133.6,86.7,138.8z M200.5,138.4c0-2.7,0.9-29,0.2-39.4c-0.1-2-1.6-5.1-4.9-6.3
	c-3.2-1.1-6.2-0.8-9.2,0.3c-7.3,2.8-8.9,12.7-9.6,20.4c-0.1,0.8-0.2,2.2-0.2,2.2s-3.3,0.1-3.9,0.1c0,0,0,0,0,0s0,0,0,0
	c0,0-0.1,0-0.1,0c0,0,0,0-0.1,0c-1.1,0.1-1.9,0.9-1.9,2c0,1.1,0.9,2,2,2c0,0,0,0,0,0c0,0,0,0,0,0c0.6,0,3.4,0,3.4,0s-1,12.6-1,14.3
	c0,0,0,0,0,0c0,0,0,0,0,0c0,1.8,1.4,3.2,3.2,3.2c1.7,0,3-1.3,3.2-2.9c0,0,0-0.1,0-0.1c0.1-1.2,1.2-14.9,1.2-14.9s7.9-0.4,10.9-0.5
	l-0.4,19.2c0,0,0,0,0,0c0,0,0,0,0,0l0,0c0,0,0,0,0,0c0,2,1.6,3.6,3.6,3.6c1.8,0,3.3-1.4,3.6-3.1c0,0,0,0,0-0.1
	C200.5,138.7,200.5,138.5,200.5,138.4z M183,115.7c0,0,0.5-10.3,1.6-13.5c0-0.1,2.7-8,7.6-5.9c2.2,1,2.1,3.5,2.1,3.5
	c-0.1,4.2-0.4,15.8-0.4,15.8L183,115.7z M34.2,100.6c-1.9,4-3.2,13.8-3.2,13.8s-1.3,0.1-1.9,0.1c-1.2,0-2.2,1-2.2,2.2
	c0,1.1,0.8,2,1.9,2.2c0.4,0.1,0.9,0.1,1.5,0c-0.4,4.8-1.2,10.4-1.6,15.2c-0.2,2.2-0.4,3.7-0.4,4.8c0,0,0,0.1,0,0.1
	c0,0.3,0,0.5,0.1,0.7c0.1,0.3,0.2,0.6,0.3,0.8c0.5,0.8,1.4,1.4,2.5,1.4c1.1,0,2-0.6,2.5-1.4c0.1-0.1,0.1-0.2,0.2-0.3c0,0,0,0,0,0
	c0.1-0.1,0.1-0.3,0.1-0.5c0-0.1,0-0.1,0-0.2c0.5-3.6,1.6-21.1,1.6-21.1l12.6-0.7c0,0-0.6,11.3-0.8,16.7c0,0,0,0,0,0
	c0,0.1,0,0.1,0,0.2c0,0.4,0.1,0.8,0.2,1.1c0,0,0,0,0,0.1c0.5,1.4,1.8,2.4,3.4,2.4c2,0,3.6-1.6,3.6-3.5c0,0,0,0,0,0
	c0.3-0.4,1.3-29.8,0.7-33.9C53.8,90.8,40.2,87.9,34.2,100.6z M35.8,114.2c0.3-6.8,2.3-11.7,3.5-13.8c1.1-1.9,2-3.1,3.6-3.8
	c1.9-0.8,5.8-0.7,5.9,2.8c0.1,1.7-0.2,8.4-0.5,14C44.3,113.7,35.8,114.2,35.8,114.2z M166.6,137.3
	C166.6,137.3,166.6,137.3,166.6,137.3c0,0.1,0,0.1,0,0.1c0,0,0,0,0,0c-0.2,1.9-1.8,3.3-3.8,3.3c-2.1,0-3.8-1.7-3.8-3.8
	c0-0.2,0-0.4,0-0.6c0,0,0,0,0,0c0.9-8.5,4.4-38.2,1.9-38.1c-1.5,0.1-6.2,16.6-12.8,33.4c-0.5,1.6-1.9,2.7-3.7,2.7
	c-1.7,0-3.2-1.2-3.7-2.8c0-0.1-0.1-0.2-0.1-0.4c-0.3-1.4-4.8-28.3-5.7-29.3c-0.4-0.5-0.8-0.1-0.9,0.3c-0.5,3-1.4,31.3-1.5,34.3
	c0,0,0,0,0,0c0,0,0,0,0,0.1c0,0.1,0,0.1,0,0.1c0,0,0,0,0,0.1c-0.1,1.3-1.2,2.3-2.5,2.3c-1.4,0-2.6-1.1-2.6-2.6c0,0,0,0,0,0
	c0,0,0,0,0,0c0.1-3.4,1.4-35.7,1.7-37.9c0.3-2.4,3.9-3.4,7.1-2.4c0.2,0.1,0.4,0.1,0.6,0.2c0,0,0,0,0,0c0.8,0.3,1.5,0.7,2.1,1.3
	c0,0,0,0,0.1,0c0,0,0.1,0.1,0.1,0.1c0.1,0.1,0.2,0.2,0.3,0.3c0.9,0.9,1.3,1.7,1.6,2.4c0.2,0.4,0.3,0.8,0.4,1.3
	c0.7,2.4,4.3,18.8,5.2,23.2c2.3-5.4,2.8-7.2,6-16.2c3.1-8.7,4.8-13,6.3-14.9c0.2-0.2,0.3-0.4,0.5-0.6c0.6-0.6,1.2-0.8,1.9-0.8
	c0.2,0,0.4,0,0.6,0c0.2,0,0.5,0.1,0.7,0.1c0.9,0.1,1.8,0.4,3.1,0.7c0.1,0,0.3,0.1,0.4,0.1c1.3,0.3,2.3,1.2,2.8,2.4
	c0.1,0.3,0.2,0.7,0.2,1c0,0,0,0,0,0.1c0,0,0,0,0,0c0,2.4,0,6.3-0.1,8.7C168.6,113.2,167.3,129.5,166.6,137.3z M120.5,100
	c-1-4.8-5.6-7.8-10.5-7.5c-9.7,0.7-11.7,13.6-13,24c0,0-2.1,0-2.8,0c0,0,0,0,0,0c0,0,0,0,0,0c0,0,0,0,0,0c0,0,0,0,0,0
	c-1.3,0-2.3,1.1-2.3,2.3c0,1.3,1,2.3,2.3,2.3c0,0,0,0,0,0c0,0,0,0,0,0c0,0,0,0,0,0c0,0,0,0,0,0c0.4,0,2.4-0.1,2.4-0.1
	c-0.4,4.7-1.7,13.6-2,16.5c0,0.2-0.1,0.4-0.1,0.7c0,1.7,1.4,3.1,3.1,3.1c1.2,0,2.2-0.7,2.7-1.6c0.2-0.3,0.3-0.7,0.4-1.1
	c0.4-3.8,1.6-17.9,1.6-17.9l10.6-0.2c0,5-0.4,15.2-0.4,16.6c0,0,0,0.1,0,0.1c0.1,1.7,1.5,3.1,3.3,3.1c1.6,0,2.9-1.1,3.2-2.5
	c0,0,0-0.1,0-0.1C119.3,136,121.6,105.1,120.5,100z M113,116.5l-10.3-0.1c0,0,1-19.7,6.9-19.9c1.8,0,3.8,1.2,3.8,3.4
	C113.4,105.9,113,116.5,113,116.5z"/>
<g>
	<g>
		<path class="st0" d="M201.6,3.1c0.7,2.3,1.2,4.7,1.6,7.1c0.4,2.4,0.8,4.8,1,7.2c0.3,2.4,0.5,4.9,0.7,7.3c0.2,2.4,0.3,4.9,0.4,7.4
			c0,0.7-0.6,1.3-1.3,1.3c-0.5,0-0.9-0.3-1.2-0.7c-1.1-2.2-2.1-4.5-3-6.8c-0.9-2.3-1.8-4.5-2.6-6.8c-0.8-2.3-1.6-4.6-2.3-6.9
			c-0.7-2.3-1.3-4.7-1.8-7c-0.4-2.4,1.1-4.6,3.5-5.1C198.9-0.3,201,1,201.6,3.1z"/>
		<path class="st0" d="M244.5,26.5c-2,1.4-4.1,2.5-6.3,3.7c-2.1,1.1-4.3,2.2-6.5,3.2c-2.2,1-4.4,2-6.7,2.9c-2.3,0.9-4.6,1.8-6.9,2.6
			c-0.7,0.2-1.4-0.1-1.6-0.8c-0.2-0.5,0-1,0.3-1.3c1.8-1.7,3.6-3.3,5.5-4.9c1.9-1.6,3.8-3.1,5.7-4.6c1.9-1.5,3.9-3,5.9-4.3
			c2-1.4,4-2.7,6.2-3.9c2.1-1.2,4.8-0.4,5.9,1.7C247,22.8,246.3,25.3,244.5,26.5z"/>
		<path class="st0" d="M235.4,74.5c-1.9-1.5-3.7-3.1-5.4-4.8c-1.7-1.7-3.4-3.4-5.1-5.2c-1.7-1.8-3.3-3.6-4.9-5.5
			c-1.6-1.9-3.1-3.8-4.6-5.8c-0.4-0.6-0.3-1.4,0.3-1.8c0.4-0.3,0.9-0.3,1.3-0.1c2.2,1.2,4.3,2.4,6.4,3.7c2.1,1.3,4.1,2.6,6.1,4
			c2,1.4,4,2.8,5.9,4.2c1.9,1.5,3.8,3,5.6,4.7c1.7,1.7,1.8,4.4,0.2,6.2C239.7,75.7,237.2,75.9,235.4,74.5z"/>
		<path class="st0" d="M187,80.6c0.8-2.3,1.9-4.5,2.9-6.7c1.1-2.2,2.2-4.3,3.4-6.4c1.2-2.1,2.4-4.2,3.7-6.3c1.3-2.1,2.6-4.2,4.1-6.2
			c0.4-0.6,1.2-0.7,1.8-0.3c0.4,0.3,0.6,0.8,0.5,1.3c-0.4,2.4-1,4.8-1.6,7.2c-0.6,2.4-1.2,4.7-1.9,7.1c-0.7,2.3-1.4,4.7-2.2,7
			c-0.8,2.3-1.7,4.6-2.7,6.7c-1,2.2-3.6,3.1-5.8,2C187.1,85.1,186.2,82.7,187,80.6z"/>
		<path class="st0" d="M166.2,36.4c2.4,0.1,4.8,0.4,7.2,0.7c2.4,0.4,4.8,0.8,7.2,1.3c2.4,0.5,4.8,1,7.2,1.6c2.4,0.6,4.8,1.2,7.1,2
			c0.7,0.2,1,0.9,0.8,1.6c-0.2,0.5-0.6,0.8-1,0.9c-2.5,0.3-4.9,0.6-7.4,0.7c-2.4,0.2-4.9,0.3-7.3,0.4c-2.4,0.1-4.9,0.1-7.3,0
			c-2.4-0.1-4.8-0.2-7.2-0.5c-2.4-0.3-4.1-2.5-3.7-4.9C162.1,38,164,36.3,166.2,36.4z"/>
	</g>
	<g>
		<path class="st0" d="M218.9,14.2c-0.4,1.9-1.1,3.8-1.7,5.7c-0.7,1.9-1.4,3.7-2.1,5.6c-0.8,1.9-1.5,3.7-2.4,5.5
			c-0.8,1.8-1.7,3.7-2.7,5.4c-0.3,0.5-0.9,0.7-1.4,0.4c-0.4-0.2-0.6-0.6-0.5-1c0.1-2,0.3-4,0.5-6c0.2-2,0.5-4,0.8-6
			c0.3-2,0.7-3.9,1.1-5.9c0.4-1.9,0.9-3.9,1.5-5.8c0.6-1.9,2.6-2.9,4.5-2.3C218.3,10.6,219.3,12.5,218.9,14.2z"/>
		<path class="st0" d="M239.2,46.7c-2,0.2-4,0.2-6,0.2c-2,0-4-0.1-6-0.3c-2-0.1-4-0.3-6-0.6c-2-0.2-4-0.5-6-0.9
			c-0.6-0.1-0.9-0.7-0.8-1.2c0.1-0.4,0.4-0.7,0.8-0.8c2-0.5,3.9-1,5.9-1.4c2-0.4,4-0.7,5.9-1c2-0.3,4-0.6,5.9-0.8c2-0.2,4-0.3,6-0.3
			c2,0,3.6,1.6,3.5,3.6C242.4,45,241,46.5,239.2,46.7z"/>
		<path class="st0" d="M214.6,75.9c-0.8-1.8-1.4-3.7-2-5.6c-0.6-1.9-1.1-3.8-1.6-5.8c-0.5-1.9-0.9-3.9-1.3-5.9c-0.4-2-0.8-4-1-6
			c-0.1-0.6,0.3-1.1,0.9-1.2c0.4-0.1,0.8,0.1,1,0.5c1.1,1.7,2.1,3.5,3.1,5.2c1,1.8,1.9,3.5,2.8,5.3c0.9,1.8,1.8,3.6,2.6,5.4
			c0.8,1.8,1.5,3.7,2.1,5.6c0.6,1.9-0.5,3.9-2.3,4.5C217.2,78.5,215.3,77.6,214.6,75.9z"/>
		<path class="st0" d="M179.1,61.5c1.5-1.3,3.1-2.5,4.7-3.6c1.6-1.1,3.3-2.2,5-3.3c1.7-1,3.4-2.1,5.2-3.1c1.8-1,3.5-1.9,5.4-2.8
			c0.5-0.2,1.1,0,1.4,0.5c0.2,0.4,0.1,0.8-0.1,1.1c-1.3,1.6-2.6,3.1-4,4.6c-1.4,1.5-2.8,2.9-4.2,4.3c-1.4,1.4-2.9,2.8-4.4,4.1
			c-1.5,1.3-3,2.6-4.6,3.8c-1.6,1.1-3.8,0.8-5-0.8C177.5,64.8,177.8,62.7,179.1,61.5z"/>
		<path class="st0" d="M182,23.4c1.7,1,3.3,2.2,4.9,3.4c1.6,1.2,3.1,2.5,4.6,3.8c1.5,1.3,3,2.6,4.5,4c1.5,1.4,2.9,2.8,4.3,4.3
			c0.4,0.4,0.4,1.1-0.1,1.5c-0.3,0.3-0.7,0.4-1.1,0.2c-1.9-0.7-3.7-1.6-5.6-2.4c-1.8-0.9-3.6-1.7-5.4-2.7c-1.8-0.9-3.5-1.9-5.3-2.9
			c-1.7-1-3.4-2.1-5-3.3c-1.6-1.2-1.9-3.4-0.7-5C178.4,22.8,180.4,22.4,182,23.4z"/>
	</g>
	<g>
		<path class="st0" d="M234.6,11.6c-0.9,1.3-1.9,2.6-2.9,3.8c-1,1.2-2.1,2.4-3.2,3.6c-1.1,1.2-2.2,2.3-3.4,3.5
			c-1.2,1.1-2.3,2.2-3.6,3.3c-0.4,0.3-0.9,0.3-1.2-0.1c-0.2-0.3-0.3-0.6-0.1-0.9c0.7-1.5,1.4-2.9,2.1-4.4c0.7-1.4,1.5-2.8,2.3-4.2
			c0.8-1.4,1.6-2.8,2.5-4.1c0.9-1.3,1.8-2.6,2.8-3.9c1-1.2,2.8-1.4,4-0.4C235.2,8.7,235.4,10.4,234.6,11.6z"/>
		<path class="st0" d="M246.4,60.4c-1.5-0.4-3-1-4.5-1.6c-1.5-0.6-2.9-1.3-4.4-1.9c-1.5-0.7-2.9-1.4-4.3-2.1
			c-1.4-0.8-2.9-1.5-4.2-2.4c-0.4-0.2-0.5-0.8-0.3-1.2c0.2-0.3,0.5-0.4,0.8-0.4c1.6,0.2,3.2,0.4,4.8,0.7c1.6,0.3,3.2,0.6,4.7,0.9
			c1.6,0.3,3.1,0.7,4.7,1.1c1.5,0.4,3.1,0.9,4.6,1.5c1.5,0.6,2.2,2.2,1.6,3.7C249.3,60.1,247.7,60.8,246.4,60.4z"/>
		<path class="st0" d="M203.5,86.6c-0.1-1.6,0-3.2,0.1-4.8c0.1-1.6,0.3-3.2,0.5-4.8c0.2-1.6,0.4-3.2,0.7-4.8c0.3-1.6,0.6-3.2,1-4.8
			c0.1-0.4,0.6-0.7,1-0.6c0.3,0.1,0.6,0.3,0.6,0.6c0.3,1.6,0.6,3.2,0.8,4.8c0.2,1.6,0.4,3.2,0.6,4.8c0.2,1.6,0.3,3.2,0.4,4.8
			c0.1,1.6,0.1,3.2,0,4.8c-0.1,1.6-1.5,2.8-3,2.7C204.7,89.3,203.6,88.1,203.5,86.6z"/>
		<path class="st0" d="M165.4,53.9c1.5-0.5,3-1,4.6-1.3c1.6-0.4,3.1-0.7,4.7-1c1.6-0.3,3.2-0.6,4.8-0.8c1.6-0.2,3.2-0.4,4.8-0.6
			c0.5,0,0.9,0.3,0.9,0.8c0,0.3-0.1,0.6-0.4,0.8c-1.4,0.8-2.9,1.6-4.3,2.3c-1.4,0.7-2.9,1.4-4.4,2c-1.5,0.6-2.9,1.3-4.4,1.8
			c-1.5,0.6-3,1.1-4.5,1.5c-1.5,0.4-3.1-0.5-3.5-2.1C163.2,55.9,164,54.4,165.4,53.9z"/>
		<path class="st0" d="M184.8,7.6c1,1.3,1.8,2.6,2.7,4c0.8,1.4,1.6,2.8,2.4,4.2c0.8,1.4,1.5,2.8,2.2,4.3c0.7,1.5,1.4,2.9,2,4.4
			c0.2,0.4,0,0.9-0.5,1.1c-0.3,0.1-0.6,0.1-0.9-0.2c-1.2-1.1-2.4-2.2-3.5-3.4c-1.1-1.2-2.2-2.3-3.3-3.5c-1.1-1.2-2.1-2.4-3.1-3.7
			c-1-1.3-2-2.5-2.8-3.9c-0.8-1.3-0.4-3.1,0.9-4C182.3,6.1,183.9,6.5,184.8,7.6z"/>
	</g>
</g>
</svg>
